PathFileType	4	(x/y/z)	S01_BK_Cal.trc
DataRate	CameraRate	NumFrames	NumMarkers	Units	OrigDataRate	OrigDataStartFrame	OrigNumFrames
240	240	4	51	mm	240	1201	2400
Frame#	Time	Sternum			R.Acromium			L.Acromium			Top.Head			R.ASIS			L.ASIS			R.PSIS			L.PSIS			R.Great.Tro			L.Great.Tro			R.Iliac.Crest			L.Iliac.Crest			V.Sacral			R.Thigh.Upper.Post			R.Thigh.Lower.Ant			R.Thigh.Lower.Post			R.Thigh.Upper.Ant			R.Knee.Lat			R.Knee.Med			R.Shank.Upper.Post			R.Shank.Lower.Ant			R.Shank.Lower.Post			R.Shank.Upper.Ant			R.Ankle.Lat			R.Ankle.Med			R.Heel.Upper			R.Heel.Med			R.Heel.Lat			R.Toe.Lat			R.Toe.Med			R.Toe.Tip			L.Thigh.Upper.Post			L.Thigh.Lower.Ant			L.Thigh.Lower.Post			L.Thigh.Upper.Ant			L.Knee.Lat			L.Knee.Med			L.Shank.Upper.Post			L.Shank.Lower.Ant			L.Shank.Lower.Post			L.Shank.Upper.Ant			L.Ankle.Lat			L.Ankle.Med			L.Heel.Upper			L.Heel.Med			L.Heel.Lat			L.Toe.Lat			L.Toe.Med			L.Toe.Tip			Cervical.Spine			Back			
		X1	Y1	Z1	X2	Y2	Z2	X3	Y3	Z3	X4	Y4	Z4	X5	Y5	Z5	X6	Y6	Z6	X7	Y7	Z7	X8	Y8	Z8	X9	Y9	Z9	X10	Y10	Z10	X11	Y11	Z11	X12	Y12	Z12	X13	Y13	Z13	X14	Y14	Z14	X15	Y15	Z15	X16	Y16	Z16	X17	Y17	Z17	X18	Y18	Z18	X19	Y19	Z19	X20	Y20	Z20	X21	Y21	Z21	X22	Y22	Z22	X23	Y23	Z23	X24	Y24	Z24	X25	Y25	Z25	X26	Y26	Z26	X27	Y27	Z27	X28	Y28	Z28	X29	Y29	Z29	X30	Y30	Z30	X31	Y31	Z31	X32	Y32	Z32	X33	Y33	Z33	X34	Y34	Z34	X35	Y35	Z35	X36	Y36	Z36	X37	Y37	Z37	X38	Y38	Z38	X39	Y39	Z39	X40	Y40	Z40	X41	Y41	Z41	X42	Y42	Z42	X43	Y43	Z43	X44	Y44	Z44	X45	Y45	Z45	X46	Y46	Z46	X47	Y47	Z47	X48	Y48	Z48	X49	Y49	Z49	X50	Y50	Z50	X51	Y51	Z51	

1201	5	719.16	1271.3	277.26	562.48	1509.8	458.1	531.55	1520.3	131.33	460.6	1815.1	301.44	694.48	1001.3	431.3	693.79	1002	161.9	456.96	1031.7	340.05	454.2	1029.1	236.14	620.57	946.69	511.62	588.83	946.2	83.402	600.26	1095.8	495.79	578.43	1082.1	91.298	445.09	992.86	286.53	653.42	642.8	515.83	732.58	579.54	499.09	668.02	554.87	502.29	721.4	669.11	511.02	699.01	491.07	501.24	707.66	482.68	361	596.3	363.74	531.25	618.51	263.02	491.29	565.07	300.08	523.84	647.57	329.55	506.75	481.54	112.57	498.59	511.43	106.25	404.83	406.04	80.569	444.52	417.01	48.183	416.97	413.63	52.136	481.53	601.54	34.976	539.46	634.04	40.134	415.12	696.95	52.027	470.96	598.51	658.98	84.06	690.12	600.31	66.593	621.79	570.87	92.629	658.66	690.55	59.261	680.37	492.56	74.045	718.71	488.85	209.35	593	383.24	50.476	620.22	277	70.013	567.75	309.35	50.261	646.64	349.14	63.862	472.97	112.77	79.184	503.89	117.54	174.01	399.69	82.311	123.79	408.94	53.402	155.16	407.38	57.375	93.377	610.3	38.011	45.179	634.63	45.651	167.54	697.17	56.123	117.72	459.95	1549.8	302.72	419.08	1227.5	314.65
1202	5.0042	719.14	1271.3	277.27	562.46	1509.8	458.12	531.53	1520.3	131.35	460.57	1815.1	301.47	694.46	1001.3	431.31	693.76	1002	161.92	456.94	1031.7	340.07	454.18	1029.1	236.16	620.55	946.68	511.63	588.8	946.2	83.417	600.24	1095.8	495.81	578.39	1082.1	91.314	445.08	992.85	286.55	653.41	642.8	515.84	732.57	579.54	499.1	668.02	554.87	502.3	721.39	669.11	511.03	699.01	491.07	501.24	707.65	482.68	361	596.3	363.73	531.26	618.51	263.02	491.29	565.07	300.08	523.84	647.56	329.55	506.75	481.54	112.57	498.59	511.43	106.25	404.83	406.04	80.566	444.52	417.01	48.18	416.97	413.63	52.133	481.53	601.54	34.975	539.46	634.04	40.134	415.12	696.95	52.028	470.96	598.49	658.99	84.074	690.1	600.31	66.604	621.77	570.87	92.643	658.64	690.55	59.273	680.36	492.56	74.051	718.7	488.85	209.35	592.99	383.25	50.481	620.21	277	70.016	567.74	309.36	50.264	646.63	349.15	63.865	472.97	112.77	79.185	503.89	117.54	174.01	399.69	82.31	123.79	408.94	53.4	155.16	407.38	57.373	93.377	610.29	38.012	45.18	634.63	45.651	167.54	697.17	56.123	117.72	459.93	1549.8	302.74	419.04	1227.5	314.67
1203	5.0083	719.11	1271.3	277.28	562.44	1509.8	458.15	531.5	1520.3	131.37	460.54	1815.1	301.5	694.45	1001.3	431.32	693.74	1002	161.93	456.92	1031.7	340.09	454.15	1029.1	236.18	620.54	946.68	511.65	588.78	946.2	83.431	600.22	1095.8	495.82	578.36	1082.1	91.329	445.06	992.85	286.57	653.4	642.8	515.85	732.57	579.54	499.1	668.01	554.86	502.3	721.38	669.11	511.04	699.01	491.07	501.25	707.65	482.68	361.01	596.3	363.73	531.26	618.51	263.02	491.29	565.07	300.08	523.85	647.56	329.55	506.76	481.53	112.57	498.6	511.42	106.25	404.83	406.04	80.564	444.52	417.01	48.177	416.97	413.62	52.13	481.53	601.54	34.974	539.46	634.04	40.133	415.12	696.95	52.028	470.96	598.47	658.99	84.088	690.08	600.32	66.614	621.76	570.87	92.657	658.61	690.55	59.285	680.34	492.57	74.057	718.69	488.86	209.36	592.98	383.25	50.487	620.2	277.01	70.018	567.73	309.36	50.268	646.62	349.15	63.869	472.97	112.76	79.186	503.89	117.53	174.01	399.69	82.308	123.79	408.94	53.398	155.16	407.38	57.372	93.378	610.29	38.012	45.18	634.63	45.651	167.53	697.17	56.124	117.71	459.91	1549.8	302.76	419	1227.5	314.69
1204	5.0125	719.09	1271.3	277.29	562.42	1509.7	458.17	531.47	1520.3	131.4	460.51	1815.1	301.52	694.43	1001.3	431.33	693.72	1002	161.95	456.9	1031.7	340.11	454.13	1029.1	236.2	620.52	946.67	511.66	588.76	946.21	83.446	600.21	1095.8	495.84	578.33	1082.1	91.343	445.04	992.85	286.59	653.4	642.8	515.86	732.56	579.54	499.11	668.01	554.86	502.31	721.37	669.11	511.05	699	491.07	501.25	707.64	482.68	361.01	596.3	363.72	531.27	618.5	263.02	491.29	565.07	300.07	523.85	647.56	329.55	506.76	481.53	112.57	498.6	511.42	106.25	404.83	406.04	80.562	444.52	417.01	48.174	416.98	413.62	52.126	481.53	601.54	34.973	539.46	634.04	40.133	415.12	696.95	52.029	470.96	598.46	659	84.102	690.07	600.32	66.624	621.74	570.87	92.671	658.59	690.55	59.297	680.32	492.57	74.062	718.68	488.86	209.36	592.97	383.25	50.492	620.2	277.01	70.02	567.72	309.36	50.271	646.61	349.16	63.872	472.97	112.76	79.187	503.89	117.53	174.01	399.69	82.307	123.79	408.94	53.396	155.17	407.38	57.371	93.379	610.29	38.012	45.18	634.63	45.652	167.53	697.17	56.125	117.71	459.89	1549.8	302.78	418.96	1227.5	314.71
